<?xml version="1.0" encoding="UTF-8"?>
<svg id="Layer_2" data-name="Layer 2" xmlns="http://www.w3.org/2000/svg" viewBox="0 0 430.38 430.38">
  <defs>
    <style>
      .cls-1 {
        fill: #f15a2d;
      }

      .cls-2 {
        fill: #f4f0ea;
      }
    </style>
  </defs>
  <g id="Layer_1-2" data-name="Layer 1">
    <g>
      <rect width="430.38" height="430.38" rx="53.39" ry="53.39"/>
      <g>
        <path class="cls-1" d="M286.17,176l.18,74.38c0,.55-.29,1.07-.76,1.35l-69.77,41.94c-.49.3-1.1.3-1.6.01l-70.02-40.44c-.49-.28-.79-.8-.79-1.37l.19-74.86c0-.56.29-1.07.77-1.35l69.75-41.38c.49-.29,1.1-.29,1.59,0l69.66,40.36c.49.28.78.8.79,1.36Z"/>
        <path class="cls-2" d="M161.06,71.54l150.86,87.2c.49.28.79.8.79,1.37l-.18,72.12c0,1.23,1.34,1.99,2.39,1.35l53.21-32c.47-.28.76-.8.76-1.35l.07-74.02c0-.56-.3-1.08-.79-1.37L215.86,36.86c-.5-.29-1.11-.28-1.6.01l-53.22,31.95c-1.03.62-1.02,2.12.02,2.72Z"/>
        <path class="cls-2" d="M366.57,235.74l-150.76,90.36c-.49.29-1.1.3-1.6.01l-67.49-39.06c-1.05-.61-2.36.15-2.37,1.36l-.21,63.75c0,.57.3,1.09.79,1.37l69.27,40c.5.29,1.11.28,1.6-.01l152.38-91.56c.47-.29.76-.8.76-1.35v-63.51c0-1.23-1.34-1.98-2.39-1.35Z"/>
        <path class="cls-2" d="M119.22,335.92l-.62-173.3c0-.55.29-1.07.76-1.36l67.64-40.76c1.03-.62,1.01-2.11-.03-2.72l-53.91-31.14c-.5-.29-1.11-.28-1.6.01l-69.28,41.54c-.48.28-.77.8-.77,1.35v174.81c0,.56.3,1.08.78,1.37l54.64,31.56c1.05.61,2.37-.15,2.37-1.37Z"/>
      </g>
    </g>
  </g>
</svg>